<?xml version="1.0" standalone="no"?><!-- Generator: Gravit.io --><svg xmlns="http://www.w3.org/2000/svg" xmlns:xlink="http://www.w3.org/1999/xlink" style="isolation:isolate" viewBox="893.29 473.047 31.243 31.243" width="31.243" height="31.243"><path d="M 893.29 488.669 C 893.29 480.047 900.29 473.047 908.911 473.047 C 917.533 473.047 924.533 480.047 924.533 488.669 C 924.533 497.29 917.533 504.29 908.911 504.29 C 900.29 504.29 893.29 497.29 893.29 488.669 M 915.19 496.521 L 915.19 490.752 L 917.105 490.752 L 917.105 498.436 L 899.822 498.436 L 899.822 490.752 L 901.737 490.752 L 901.737 496.521 L 915.19 496.521 M 893.29 488.669 Z M 903.851 490.205 L 913.25 492.17 L 913.648 490.28 L 904.249 488.315 L 903.851 490.205 M 905.094 485.729 L 913.798 489.782 L 914.593 488.042 L 905.89 483.964 L 905.094 485.729 M 907.506 481.452 L 914.892 487.594 L 916.11 486.127 L 908.725 479.985 L 907.506 481.452 M 912.281 476.901 L 910.739 478.045 L 916.458 485.754 L 918 484.61 L 912.281 476.901 M 903.652 494.582 L 913.25 494.582 L 913.25 492.667 L 903.652 492.667 L 903.652 494.582 M 903.851 490.205 Z" style="stroke:none;fill:#333333;stroke-miterlimit:10;fill-rule:evenodd;"/></svg>