<?xml version="1.0" standalone="no"?><!-- Generator: Gravit.io --><svg xmlns="http://www.w3.org/2000/svg" xmlns:xlink="http://www.w3.org/1999/xlink" style="isolation:isolate" viewBox="825.645 473.047 31.243 31.243" width="31.243" height="31.243"><path d="M 825.645 488.669 C 825.645 480.047 832.645 473.047 841.266 473.047 C 849.888 473.047 856.888 480.047 856.888 488.669 C 856.888 497.29 849.888 504.29 841.266 504.29 C 832.645 504.29 825.645 497.29 825.645 488.669 Z M 835.679 481.233 L 836.851 481.233 L 836.851 483.938 L 839.039 483.938 L 839.039 484.895 L 836.851 484.895 L 836.851 491.936 Q 836.851 492.815 837.169 493.245 Q 837.486 493.674 838.228 493.674 Q 838.521 493.674 839.175 493.577 L 839.224 494.534 Q 838.765 494.7 837.974 494.7 Q 836.773 494.7 836.226 494.002 Q 835.679 493.303 835.679 491.946 L 835.679 484.895 L 833.736 484.895 L 833.736 483.938 L 835.679 483.938 L 835.679 481.233 M 849.957 489.163 L 849.957 489.329 Q 849.957 491.799 848.863 493.25 Q 847.769 494.7 845.933 494.7 Q 843.765 494.7 842.613 493.176 L 842.613 498.567 L 841.451 498.567 L 841.451 483.938 L 842.535 483.938 L 842.593 485.432 Q 843.736 483.743 845.904 483.743 Q 847.798 483.743 848.878 485.178 Q 849.957 486.614 849.957 489.163 M 848.785 489.124 Q 848.785 487.102 847.955 485.93 Q 847.125 484.758 845.64 484.758 Q 844.566 484.758 843.795 485.276 Q 843.023 485.794 842.613 486.78 L 842.613 491.848 Q 843.033 492.757 843.814 493.235 Q 844.595 493.714 845.66 493.714 Q 847.134 493.714 847.96 492.537 Q 848.785 491.36 848.785 489.124 M 835.679 481.233 Z" style="stroke:none;fill:#333333;stroke-miterlimit:10;fill-rule:evenodd;"/></svg>