<?xml version="1.0" standalone="no"?><!-- Generator: Gravit.io --><svg xmlns="http://www.w3.org/2000/svg" xmlns:xlink="http://www.w3.org/1999/xlink" style="isolation:isolate" viewBox="759.558 539.451 31.243 31.243" width="31.243" height="31.243"><path d="M 759.558 555.072 C 759.558 546.451 766.558 539.451 775.179 539.451 C 783.801 539.451 790.801 546.451 790.801 555.072 C 790.801 563.694 783.801 570.693 775.179 570.693 C 766.558 570.693 759.558 563.694 759.558 555.072 Z M 786.085 548.671 C 784.955 546.735 783.423 545.203 781.487 544.074 C 779.552 542.944 777.438 542.379 775.146 542.379 C 772.854 542.379 770.74 542.944 768.805 544.074 C 766.87 545.203 765.337 546.735 764.208 548.671 C 763.078 550.607 762.513 552.72 762.513 555.012 C 762.513 557.765 763.316 560.24 764.923 562.438 C 766.53 564.637 768.605 566.159 771.149 567.003 C 771.445 567.058 771.664 567.019 771.807 566.888 C 771.949 566.757 772.021 566.592 772.021 566.395 C 772.021 566.362 772.018 566.066 772.012 565.507 C 772.007 564.947 772.004 564.459 772.004 564.043 L 771.626 564.108 C 771.385 564.152 771.08 564.171 770.713 564.166 C 770.346 564.161 769.964 564.122 769.57 564.051 C 769.175 563.98 768.807 563.815 768.468 563.558 C 768.128 563.3 767.886 562.963 767.744 562.546 L 767.579 562.168 C 767.47 561.916 767.297 561.636 767.061 561.329 C 766.826 561.022 766.587 560.813 766.346 560.704 L 766.231 560.621 C 766.154 560.567 766.083 560.5 766.017 560.424 C 765.951 560.347 765.902 560.27 765.869 560.194 C 765.836 560.117 765.863 560.054 765.951 560.004 C 766.039 559.955 766.198 559.931 766.428 559.931 L 766.757 559.98 C 766.976 560.024 767.248 560.155 767.571 560.374 C 767.895 560.594 768.161 560.879 768.369 561.229 C 768.621 561.679 768.925 562.022 769.282 562.258 C 769.638 562.494 769.997 562.611 770.359 562.611 C 770.721 562.611 771.034 562.584 771.297 562.529 C 771.56 562.474 771.807 562.392 772.037 562.282 C 772.136 561.547 772.404 560.983 772.843 560.588 C 772.218 560.522 771.656 560.423 771.157 560.292 C 770.658 560.16 770.143 559.946 769.611 559.65 C 769.079 559.354 768.637 558.987 768.287 558.548 C 767.936 558.109 767.648 557.534 767.423 556.821 C 767.198 556.108 767.086 555.286 767.086 554.354 C 767.086 553.026 767.519 551.897 768.386 550.965 C 767.98 549.967 768.018 548.849 768.501 547.61 C 768.819 547.511 769.29 547.585 769.915 547.832 C 770.54 548.078 770.998 548.29 771.289 548.465 C 771.579 548.64 771.812 548.789 771.988 548.909 C 773.008 548.624 774.061 548.481 775.146 548.481 C 776.232 548.481 777.285 548.624 778.305 548.909 L 778.93 548.514 C 779.357 548.251 779.862 548.01 780.443 547.79 C 781.024 547.571 781.468 547.511 781.776 547.61 C 782.269 548.849 782.313 549.967 781.907 550.965 C 782.773 551.897 783.207 553.027 783.207 554.354 C 783.207 555.286 783.094 556.111 782.869 556.829 C 782.645 557.548 782.354 558.123 781.998 558.556 C 781.641 558.99 781.197 559.354 780.665 559.65 C 780.133 559.946 779.618 560.16 779.119 560.292 C 778.62 560.423 778.058 560.522 777.433 560.588 C 778.003 561.082 778.288 561.86 778.288 562.924 L 778.288 566.394 C 778.288 566.591 778.357 566.756 778.494 566.888 C 778.631 567.019 778.847 567.058 779.144 567.003 C 781.688 566.158 783.763 564.637 785.37 562.438 C 786.976 560.239 787.779 557.764 787.779 555.011 C 787.779 552.72 787.214 550.607 786.085 548.671 Z" style="stroke:none;fill:#333333;stroke-miterlimit:10;fill-rule:evenodd;"/></svg>