<?xml version="1.0" standalone="no"?><!-- Generator: Gravit.io --><svg xmlns="http://www.w3.org/2000/svg" xmlns:xlink="http://www.w3.org/1999/xlink" style="isolation:isolate" viewBox="758 473.047 31.243 31.243" width="31.243" height="31.243"><path d="M 758 488.669 C 758 480.047 765 473.047 773.621 473.047 C 782.243 473.047 789.243 480.047 789.243 488.669 C 789.243 497.29 782.243 504.29 773.621 504.29 C 765 504.29 758 497.29 758 488.669 Z M 777.915 480.005 Q 779.542 479.934 780.462 480.571 Q 780.985 480.827 781.365 481.225 Q 781.4 481.455 781.701 481.42 Q 783.234 481.078 784.425 480.394 L 784.408 480.447 C 784.15 481.19 783.722 481.869 783.116 482.375 L 782.532 482.782 L 782.55 482.835 C 783.401 482.728 784.246 482.523 785.027 482.163 L 784.939 482.287 L 784.284 483.154 L 784.16 483.242 L 783.647 483.791 L 783.523 483.879 L 783.505 483.932 L 782.815 484.481 Q 782.834 488.48 781.365 490.992 Q 780.426 492.884 779.012 494.3 L 778.959 494.318 L 778.835 494.477 L 778.711 494.565 L 778.693 494.619 L 778.286 494.955 L 778.269 495.008 L 778.109 495.096 L 778.056 495.185 Q 775.076 497.937 769.387 497.98 Q 765.472 497.702 763 495.981 L 763.159 495.963 Q 763.221 496.06 763.442 495.999 Q 763.823 495.937 764.044 496.034 Q 767.662 495.866 769.652 494.07 Q 767.505 493.9 766.432 492.655 Q 765.769 491.973 765.442 490.956 L 765.672 490.939 Q 765.975 491.042 766.415 491.009 Q 767.067 491.06 767.423 490.815 Q 765.93 490.504 765.088 489.541 Q 763.911 488.524 763.849 486.392 L 763.902 486.374 C 764.464 486.741 765.153 486.858 765.813 486.869 L 765.742 486.763 L 765.265 486.392 L 765.212 486.303 L 765.052 486.179 Q 763.792 485.034 763.885 482.535 Q 764.035 481.553 764.468 480.854 L 764.522 480.872 L 764.964 481.42 L 765.052 481.473 L 765.565 482.022 L 765.654 482.075 L 765.742 482.199 L 766.255 482.605 L 766.273 482.659 C 768.327 484.532 771.093 485.328 773.81 485.56 L 773.828 485.401 Q 773.695 485.003 773.722 484.445 Q 773.833 482.788 774.624 481.809 L 774.677 481.792 Q 774.901 481.29 775.367 481.031 Q 776.307 480.184 777.915 480.005 Z" style="stroke:none;fill:#333333;stroke-miterlimit:10;fill-rule:evenodd;"/></svg>